<svg xmlns="http://www.w3.org/2000/svg" xmlns:xlink="http://www.w3.org/1999/xlink">
  <title>বাংলা</title>
  <svg xmlns="http://www.w3.org/2000/svg" id="regular" viewBox="0 0 33 12"><path d="M8.9 1.8v.99H7.45v7.71H6.36A6.87 6.87 0 0 0 1.5 7.1L.93 5.75a23.64 23.64 0 0 1 5.74-2.59l-.32.6v-.97H.28v-1h8.63zM6.37 3.85l.3.4a24.82 24.82 0 0 0-4.42 1.98 7.64 7.64 0 0 1 3.2 1.6c.48.4.85.9 1.1 1.43h-.1l-.07-.65-.01-.77V3.86zm6.27-2.07v1h-1.47v7.7H10.1V3.94a2.13 2.13 0 0 0-.5-.8c-.22-.23-.5-.34-.85-.34h-.1v-1h.2c.23 0 .46.08.7.23.24.14.44.36.6.65l-.04-.32V.87h.74l.3.92h1.5zM14.2 6.1a12.02 12.02 0 0 1 3.1 2.84c.45.57.82 1.12 1.12 1.67l-.9.46c-.4-.58-.78-1.1-1.16-1.58A11.07 11.07 0 0 0 13.5 7l.7-.89zm-.63-2.4c0-.4.09-.72.25-1 .18-.29.42-.5.72-.67.3-.16.63-.24 1-.24a2 2 0 0 1 1 .24c.31.16.55.38.71.67.18.28.27.6.27 1a1.9 1.9 0 0 1-.97 1.68c-.3.15-.63.23-1 .23a2.2 2.2 0 0 1-1.01-.23 1.9 1.9 0 0 1-.72-.66 2 2 0 0 1-.25-1.02zm.97 0c0 .31.1.56.28.74.2.18.44.26.73.26.3 0 .54-.08.72-.26a1 1 0 0 0 .28-.74c0-.32-.1-.56-.28-.73a1.01 1.01 0 0 0-.72-.27c-.3 0-.54.1-.73.28a.94.94 0 0 0-.28.72zm14.45-1.9v.99h-1.47v7.71h-1.07V5.8l.08.37a2.8 2.8 0 0 0-.66-.7 1.17 1.17 0 0 0-1.17-.19.74.74 0 0 0-.37.28c-.1.14-.14.35-.14.64v.28l.03.23-.91.07a2.3 2.3 0 0 0-.3-.97 1.77 1.77 0 0 0-.6-.62c-.23-.14-.5-.2-.77-.2-.25 0-.47.05-.64.15a.97.97 0 0 0-.4.4.95.95 0 0 0-.15.54c0 .37.14.69.4.95.3.26.68.48 1.18.66l-.36 1.03a4.49 4.49 0 0 1-1.2-.57 2.75 2.75 0 0 1-.85-.9c-.2-.35-.3-.76-.3-1.23a1.9 1.9 0 0 1 1.13-1.79 2.5 2.5 0 0 1 1.13-.25c.5 0 .92.1 1.28.28.35.17.68.46.98.86l-.2.02c.08-.3.26-.54.52-.7a1.75 1.75 0 0 1 1.7-.05c.25.08.5.3.8.52l-.12.2-.03-.58V2.8h-7.98v-1h10.5zm3.73 0v.99h-1.47v7.71h-1.07V3.93a2.14 2.14 0 0 0-.5-.8c-.22-.23-.5-.34-.85-.34h-.11v-1h.2c.23 0 .47.08.7.23.25.14.45.36.6.65l-.03-.32V.87h.74l.3.92h1.5z"/></svg>
  <svg xmlns="http://www.w3.org/2000/svg" id="bold" data-name="bold" viewBox="0 0 60 23">
      <path d="M9.336,4.248 L1.42108547e-14,4.248 L1.42108547e-14,2.4 L14.28,2.4 L14.28,4.248 L11.544,4.248 L11.544,16.2 L12.576,16.848 L11.088,18.336 L1.584,12.336 L1.584,10.416 C2.88,9.096 6.24,6.72 9.336,5.784 L9.336,4.248 Z M9.336,7.944 C7.368,8.664 4.8,10.344 3.816,11.352 L9.456,14.928 L9.552,14.928 C9.408,13.608 9.336,11.952 9.336,10.416 L9.336,7.944 Z M16.128,0.552 C16.128,1.848 16.368,2.832 16.512,3.24 L16.392,3.24 C16.176,2.952 15.672,2.4 14.496,2.4 L13.32,2.4 L13.32,4.248 L14.04,4.248 C15.36,4.248 16.056,4.8 16.056,6.48 L16.056,18 L18.288,18 L18.288,4.248 L21.024,4.248 L21.024,2.4 L18.288,2.4 L18.288,0 L16.128,0 L16.128,0.552 Z M23.352,11.112 L30.12,17.04 L28.656,18.192 L21.384,12.456 L23.352,11.112 Z M25.968,3.864 C24.912,3.864 24.144,4.68 24.12,5.736 C24.12,6.888 24.912,7.752 25.992,7.752 C27.048,7.752 27.84,6.96 27.84,5.88 C27.84,4.776 27.048,3.864 25.968,3.864 Z M26.016,9.408 C23.856,9.408 22.104,8.064 22.104,5.904 C22.104,3.792 23.856,2.184 25.944,2.184 C28.128,2.184 29.856,3.552 29.856,5.736 C29.856,7.824 28.104,9.408 26.016,9.408 Z M39.504,15.576 C38.976,15.768 38.376,15.864 37.728,15.864 C34.68,15.864 32.664,13.896 32.664,10.968 C32.664,8.16 34.632,6.504 36.792,6.504 C38.736,6.504 39.72,7.68 39.96,8.472 L40.056,8.472 C40.248,7.512 41.208,6.432 42.72,6.432 C43.92,6.432 44.64,7.08 44.88,7.344 L44.976,7.344 L44.976,4.248 L30.936,4.248 L30.936,2.4 L49.92,2.4 L49.92,4.248 L47.184,4.248 L47.184,18 L44.976,18 L44.976,9.72 C44.784,9.144 44.04,8.448 42.984,8.448 C41.856,8.448 41.016,9.264 41.016,10.68 L41.016,11.568 L38.904,11.568 L38.904,10.704 C38.904,9.192 38.064,8.52 36.96,8.52 C35.88,8.52 34.872,9.36 34.872,10.944 C34.872,12.84 36.168,13.896 37.8,13.896 C38.28,13.896 38.784,13.8 39.216,13.608 L39.504,15.576 Z M51.768,0.552 L51.768,0 L53.928,0 L53.928,2.4 L56.664,2.4 L56.664,4.248 L53.928,4.248 L53.928,18 L51.696,18 L51.696,6.48 C51.696,4.8 51,4.248 49.68,4.248 L48.96,4.248 L48.96,2.4 L50.136,2.4 C51.312,2.4 51.816,2.952 52.032,3.24 L52.152,3.24 L52.0900764,3.04670578 C51.9482667,2.56405333 51.768,1.6752 51.768,0.552 Z" id="বাংলা"></path>
  </svg>
  <svg xmlns="http://www.w3.org/2000/svg" id="underline" data-name="underline" viewBox="0 0 60 23">
    <path d="M9.336,4.248 L1.42108547e-14,4.248 L1.42108547e-14,2.4 L14.28,2.4 L14.28,4.248 L11.544,4.248 L11.544,16.2 L12.576,16.848 L11.088,18.336 L1.584,12.336 L1.584,10.416 C2.88,9.096 6.24,6.72 9.336,5.784 L9.336,4.248 Z M9.336,7.944 C7.368,8.664 4.8,10.344 3.816,11.352 L9.456,14.928 L9.552,14.928 C9.408,13.608 9.336,11.952 9.336,10.416 L9.336,7.944 Z M16.128,0.552 C16.128,1.848 16.368,2.832 16.512,3.24 L16.392,3.24 C16.176,2.952 15.672,2.4 14.496,2.4 L13.32,2.4 L13.32,4.248 L14.04,4.248 C15.36,4.248 16.056,4.8 16.056,6.48 L16.056,18 L18.288,18 L18.288,4.248 L21.024,4.248 L21.024,2.4 L18.288,2.4 L18.288,0 L16.128,0 L16.128,0.552 Z M23.352,11.112 L30.12,17.04 L28.656,18.192 L21.384,12.456 L23.352,11.112 Z M25.968,3.864 C24.912,3.864 24.144,4.68 24.12,5.736 C24.12,6.888 24.912,7.752 25.992,7.752 C27.048,7.752 27.84,6.96 27.84,5.88 C27.84,4.776 27.048,3.864 25.968,3.864 Z M26.016,9.408 C23.856,9.408 22.104,8.064 22.104,5.904 C22.104,3.792 23.856,2.184 25.944,2.184 C28.128,2.184 29.856,3.552 29.856,5.736 C29.856,7.824 28.104,9.408 26.016,9.408 Z M39.504,15.576 C38.976,15.768 38.376,15.864 37.728,15.864 C34.68,15.864 32.664,13.896 32.664,10.968 C32.664,8.16 34.632,6.504 36.792,6.504 C38.736,6.504 39.72,7.68 39.96,8.472 L40.056,8.472 C40.248,7.512 41.208,6.432 42.72,6.432 C43.92,6.432 44.64,7.08 44.88,7.344 L44.976,7.344 L44.976,4.248 L30.936,4.248 L30.936,2.4 L49.92,2.4 L49.92,4.248 L47.184,4.248 L47.184,18 L44.976,18 L44.976,9.72 C44.784,9.144 44.04,8.448 42.984,8.448 C41.856,8.448 41.016,9.264 41.016,10.68 L41.016,11.568 L38.904,11.568 L38.904,10.704 C38.904,9.192 38.064,8.52 36.96,8.52 C35.88,8.52 34.872,9.36 34.872,10.944 C34.872,12.84 36.168,13.896 37.8,13.896 C38.28,13.896 38.784,13.8 39.216,13.608 L39.504,15.576 Z M51.768,0.552 L51.768,0 L53.928,0 L53.928,2.4 L56.664,2.4 L56.664,4.248 L53.928,4.248 L53.928,18 L51.696,18 L51.696,6.48 C51.696,4.8 51,4.248 49.68,4.248 L48.96,4.248 L48.96,2.4 L50.136,2.4 C51.312,2.4 51.816,2.952 52.032,3.24 L52.152,3.24 L52.0900764,3.04670578 C51.9482667,2.56405333 51.768,1.6752 51.768,0.552 Z" id="বাংলা"></path>
    <polygon id="Path" points="1.184 20.5 1.184 22.5 55.684 22.5 55.684 20.5"></polygon>
  </svg>
</svg>
