<svg  xmlns="http://www.w3.org/2000/svg">
    <svg width="48" height="24" viewBox="0 0 48 24" xmlns="http://www.w3.org/2000/svg" id="regular">
<path d="M7.53599 15.7359L7.52799 16.9999H0.463989V5.53594H7.52799V6.79994H2.01599V10.6079H6.47999V11.8239H2.01599V15.7359H7.53599ZM10.4876 10.0719C10.6636 9.87461 10.8503 9.69594 11.0476 9.53594C11.245 9.37594 11.453 9.23994 11.6716 9.12794C11.8956 9.01061 12.1303 8.92261 12.3756 8.86394C12.6263 8.79994 12.8956 8.76794 13.1836 8.76794C13.6263 8.76794 14.0156 8.84261 14.3516 8.99194C14.693 9.13594 14.9756 9.34394 15.1996 9.61594C15.429 9.88261 15.6023 10.2053 15.7196 10.5839C15.837 10.9626 15.8956 11.3813 15.8956 11.8399V16.9999H14.4636V11.8399C14.4636 11.2266 14.3223 10.7519 14.0396 10.4159C13.7623 10.0746 13.3383 9.90394 12.7676 9.90394C12.3463 9.90394 11.9516 10.0053 11.5836 10.2079C11.221 10.4106 10.885 10.6853 10.5756 11.0319V16.9999H9.14362V8.89594H9.99962C10.2023 8.89594 10.3276 8.99461 10.3756 9.19194L10.4876 10.0719ZM20.8895 13.0399C21.1775 13.0399 21.4308 12.9999 21.6495 12.9199C21.8682 12.8399 22.0522 12.7279 22.2015 12.5839C22.3508 12.4399 22.4628 12.2693 22.5375 12.0719C22.6122 11.8693 22.6495 11.6479 22.6495 11.4079C22.6495 10.9119 22.4975 10.5173 22.1935 10.2239C21.8948 9.93061 21.4602 9.78394 20.8895 9.78394C20.3135 9.78394 19.8735 9.93061 19.5695 10.2239C19.2708 10.5173 19.1215 10.9119 19.1215 11.4079C19.1215 11.6479 19.1588 11.8693 19.2335 12.0719C19.3135 12.2693 19.4282 12.4399 19.5775 12.5839C19.7268 12.7279 19.9108 12.8399 20.1295 12.9199C20.3482 12.9999 20.6015 13.0399 20.8895 13.0399ZM23.4575 17.4399C23.4575 17.2426 23.4015 17.0826 23.2895 16.9599C23.1775 16.8372 23.0255 16.7412 22.8335 16.6719C22.6468 16.6026 22.4282 16.5546 22.1775 16.5279C21.9268 16.4959 21.6602 16.4719 21.3775 16.4559C21.1002 16.4399 20.8175 16.4239 20.5295 16.4079C20.2415 16.3919 19.9642 16.3652 19.6975 16.3279C19.3988 16.4666 19.1535 16.6426 18.9615 16.8559C18.7748 17.0639 18.6815 17.3092 18.6815 17.5919C18.6815 17.7732 18.7268 17.9412 18.8175 18.0959C18.9135 18.2559 19.0575 18.3919 19.2495 18.5039C19.4415 18.6212 19.6815 18.7119 19.9695 18.7759C20.2628 18.8452 20.6068 18.8799 21.0015 18.8799C21.3855 18.8799 21.7295 18.8452 22.0335 18.7759C22.3375 18.7066 22.5935 18.6079 22.8015 18.4799C23.0148 18.3519 23.1775 18.1999 23.2895 18.0239C23.4015 17.8479 23.4575 17.6532 23.4575 17.4399ZM24.9055 9.21594V9.74394C24.9055 9.91994 24.7935 10.0319 24.5695 10.0799L23.6495 10.1999C23.8308 10.5519 23.9215 10.9413 23.9215 11.3679C23.9215 11.7626 23.8442 12.1226 23.6895 12.4479C23.5402 12.7679 23.3322 13.0426 23.0655 13.2719C22.7988 13.5013 22.4788 13.6773 22.1055 13.7999C21.7322 13.9226 21.3268 13.9839 20.8895 13.9839C20.5108 13.9839 20.1535 13.9386 19.8175 13.8479C19.6468 13.9546 19.5162 14.0693 19.4255 14.1919C19.3348 14.3093 19.2895 14.4293 19.2895 14.5519C19.2895 14.7439 19.3668 14.8906 19.5215 14.9919C19.6815 15.0879 19.8895 15.1572 20.1455 15.1999C20.4015 15.2426 20.6922 15.2692 21.0175 15.2799C21.3482 15.2906 21.6842 15.3092 22.0255 15.3359C22.3722 15.3572 22.7082 15.3972 23.0335 15.4559C23.3642 15.5146 23.6575 15.6106 23.9135 15.7439C24.1695 15.8772 24.3748 16.0612 24.5295 16.2959C24.6895 16.5306 24.7695 16.8346 24.7695 17.2079C24.7695 17.5546 24.6815 17.8906 24.5055 18.2159C24.3348 18.5412 24.0868 18.8292 23.7615 19.0799C23.4362 19.3359 23.0362 19.5386 22.5615 19.6879C22.0922 19.8426 21.5615 19.9199 20.9695 19.9199C20.3775 19.9199 19.8602 19.8612 19.4175 19.7439C18.9748 19.6266 18.6068 19.4692 18.3135 19.2719C18.0202 19.0746 17.7988 18.8452 17.6495 18.5839C17.5055 18.3279 17.4335 18.0586 17.4335 17.7759C17.4335 17.3759 17.5588 17.0372 17.8095 16.7599C18.0602 16.4826 18.4042 16.2612 18.8415 16.0959C18.6015 15.9892 18.4095 15.8479 18.2655 15.6719C18.1268 15.4906 18.0575 15.2479 18.0575 14.9439C18.0575 14.8266 18.0788 14.7066 18.1215 14.5839C18.1642 14.4559 18.2282 14.3306 18.3135 14.2079C18.4042 14.0799 18.5135 13.9599 18.6415 13.8479C18.7695 13.7359 18.9188 13.6373 19.0895 13.5519C18.6895 13.3279 18.3775 13.0319 18.1535 12.6639C17.9295 12.2906 17.8175 11.8586 17.8175 11.3679C17.8175 10.9733 17.8922 10.6159 18.0415 10.2959C18.1962 9.97061 18.4095 9.69594 18.6815 9.47194C18.9535 9.24261 19.2762 9.06661 19.6495 8.94394C20.0282 8.82127 20.4415 8.75994 20.8895 8.75994C21.2415 8.75994 21.5695 8.79994 21.8735 8.87994C22.1775 8.95461 22.4548 9.06661 22.7055 9.21594H24.9055ZM27.85 5.21594V16.9999H26.426V5.21594H27.85ZM31.6633 8.89594V16.9999H30.2393V8.89594H31.6633ZM31.9673 6.35194C31.9673 6.49061 31.9379 6.62127 31.8793 6.74394C31.8259 6.86127 31.7513 6.96794 31.6553 7.06394C31.5646 7.15461 31.4553 7.22661 31.3273 7.27994C31.2046 7.33327 31.0739 7.35994 30.9353 7.35994C30.7966 7.35994 30.6659 7.33327 30.5433 7.27994C30.4259 7.22661 30.3219 7.15461 30.2313 7.06394C30.1406 6.96794 30.0686 6.86127 30.0153 6.74394C29.9619 6.62127 29.9353 6.49061 29.9353 6.35194C29.9353 6.21327 29.9619 6.08261 30.0153 5.95994C30.0686 5.83194 30.1406 5.72261 30.2313 5.63194C30.3219 5.53594 30.4259 5.46128 30.5433 5.40794C30.6659 5.35461 30.7966 5.32794 30.9353 5.32794C31.0739 5.32794 31.2046 5.35461 31.3273 5.40794C31.4553 5.46128 31.5646 5.53594 31.6553 5.63194C31.7513 5.72261 31.8259 5.83194 31.8793 5.95994C31.9379 6.08261 31.9673 6.21327 31.9673 6.35194ZM38.723 10.2319C38.659 10.3493 38.5603 10.4079 38.427 10.4079C38.347 10.4079 38.2563 10.3786 38.155 10.3199C38.0537 10.2613 37.9283 10.1973 37.779 10.1279C37.635 10.0533 37.4617 9.98661 37.259 9.92794C37.0563 9.86394 36.8163 9.83194 36.539 9.83194C36.299 9.83194 36.083 9.86394 35.891 9.92794C35.699 9.98661 35.5337 10.0693 35.395 10.1759C35.2617 10.2826 35.1577 10.4079 35.083 10.5519C35.0137 10.6906 34.979 10.8426 34.979 11.0079C34.979 11.2159 35.0377 11.3893 35.155 11.5279C35.2777 11.6666 35.4377 11.7866 35.635 11.8879C35.8323 11.9893 36.0563 12.0799 36.307 12.1599C36.5577 12.2346 36.8137 12.3173 37.075 12.4079C37.3417 12.4933 37.6003 12.5893 37.851 12.6959C38.1017 12.8026 38.3257 12.9359 38.523 13.0959C38.7203 13.2559 38.8777 13.4533 38.995 13.6879C39.1177 13.9173 39.179 14.1946 39.179 14.5199C39.179 14.8933 39.1123 15.2399 38.979 15.5599C38.8457 15.8746 38.6483 16.1492 38.387 16.3839C38.1257 16.6132 37.8057 16.7946 37.427 16.9279C37.0483 17.0612 36.611 17.1279 36.115 17.1279C35.5497 17.1279 35.0377 17.0372 34.579 16.8559C34.1203 16.6692 33.731 16.4319 33.411 16.1439L33.747 15.5999C33.7897 15.5306 33.8403 15.4772 33.899 15.4399C33.9577 15.4026 34.0323 15.3839 34.123 15.3839C34.219 15.3839 34.3203 15.4212 34.427 15.4959C34.5337 15.5706 34.6617 15.6532 34.811 15.7439C34.9657 15.8346 35.1523 15.9172 35.371 15.9919C35.5897 16.0666 35.8617 16.1039 36.187 16.1039C36.4643 16.1039 36.707 16.0692 36.915 15.9999C37.123 15.9252 37.2963 15.8266 37.435 15.7039C37.5737 15.5812 37.675 15.4399 37.739 15.2799C37.8083 15.1199 37.843 14.9493 37.843 14.7679C37.843 14.5439 37.7817 14.3599 37.659 14.2159C37.5417 14.0666 37.3843 13.9413 37.187 13.8399C36.9897 13.7333 36.763 13.6426 36.507 13.5679C36.2563 13.4879 35.9977 13.4053 35.731 13.3199C35.4697 13.2346 35.211 13.1386 34.955 13.0319C34.7043 12.9199 34.4803 12.7813 34.283 12.6159C34.0857 12.4506 33.9257 12.2479 33.803 12.0079C33.6857 11.7626 33.627 11.4666 33.627 11.1199C33.627 10.8106 33.691 10.5146 33.819 10.2319C33.947 9.94394 34.1337 9.69327 34.379 9.47994C34.6243 9.26127 34.9257 9.08794 35.283 8.95994C35.6403 8.83194 36.0483 8.76794 36.507 8.76794C37.0403 8.76794 37.5177 8.85327 37.939 9.02394C38.3657 9.18927 38.7337 9.41861 39.043 9.71194L38.723 10.2319ZM42.3569 9.97594C42.7035 9.60794 43.0875 9.31461 43.5089 9.09594C43.9302 8.87727 44.4155 8.76794 44.9649 8.76794C45.4075 8.76794 45.7969 8.84261 46.1329 8.99194C46.4742 9.13594 46.7569 9.34394 46.9809 9.61594C47.2102 9.88261 47.3835 10.2053 47.5009 10.5839C47.6182 10.9626 47.6769 11.3813 47.6769 11.8399V16.9999H46.2449V11.8399C46.2449 11.2266 46.1035 10.7519 45.8209 10.4159C45.5435 10.0746 45.1195 9.90394 44.5489 9.90394C44.1275 9.90394 43.7329 10.0053 43.3649 10.2079C43.0022 10.4106 42.6662 10.6853 42.3569 11.0319V16.9999H40.9249V5.21594H42.3569V9.97594Z" />
</svg>

    <svg width="50" height="24" viewBox="0 0 50 24" xmlns="http://www.w3.org/2000/svg" id="bold">
<path d="M3.1199 7.38503V10.593H7.1679V12.249H3.1199V15.521H8.25591V17.241H0.9599V5.67303H8.25591V7.38503H3.1199ZM11.5271 10.041C11.6925 9.8757 11.8658 9.7237 12.0471 9.58503C12.2338 9.44103 12.4285 9.32103 12.6311 9.22503C12.8391 9.1237 13.0605 9.04636 13.2951 8.99303C13.5298 8.93436 13.7858 8.90503 14.0631 8.90503C14.5111 8.90503 14.9085 8.98236 15.2551 9.13703C15.6018 9.28636 15.8898 9.4997 16.1191 9.77703C16.3538 10.049 16.5298 10.377 16.6471 10.761C16.7698 11.1397 16.8311 11.5584 16.8311 12.017V17.241H14.8551V12.017C14.8551 11.5157 14.7405 11.129 14.5111 10.857C14.2818 10.5797 13.9325 10.441 13.4631 10.441C13.1218 10.441 12.8018 10.5184 12.5031 10.673C12.2045 10.8277 11.9218 11.0384 11.6551 11.305V17.241H9.67915V9.03303H10.8871C11.1431 9.03303 11.3111 9.15303 11.3911 9.39303L11.5271 10.041ZM21.7104 12.937C21.9557 12.937 22.169 12.905 22.3504 12.841C22.5317 12.7717 22.681 12.6784 22.7984 12.561C22.921 12.4437 23.0117 12.3024 23.0704 12.137C23.1344 11.9717 23.1664 11.7904 23.1664 11.593C23.1664 11.1877 23.0437 10.8677 22.7984 10.633C22.5584 10.393 22.1957 10.273 21.7104 10.273C21.225 10.273 20.8597 10.393 20.6144 10.633C20.3744 10.8677 20.2544 11.1877 20.2544 11.593C20.2544 11.785 20.2837 11.9637 20.3424 12.129C20.4064 12.2944 20.497 12.4384 20.6144 12.561C20.737 12.6784 20.889 12.7717 21.0704 12.841C21.257 12.905 21.4704 12.937 21.7104 12.937ZM23.9424 17.609C23.9424 17.449 23.8944 17.3183 23.7984 17.217C23.7024 17.1157 23.5717 17.0383 23.4064 16.985C23.241 16.9263 23.0464 16.8837 22.8224 16.857C22.6037 16.8303 22.369 16.8117 22.1184 16.801C21.873 16.785 21.617 16.7717 21.3504 16.761C21.089 16.7503 20.833 16.729 20.5824 16.697C20.3637 16.8197 20.185 16.9637 20.0464 17.129C19.913 17.2943 19.8464 17.4863 19.8464 17.705C19.8464 17.849 19.881 17.9823 19.9504 18.105C20.025 18.233 20.1397 18.3423 20.2944 18.433C20.4544 18.5237 20.6597 18.593 20.9104 18.641C21.161 18.6943 21.4677 18.721 21.8304 18.721C22.1984 18.721 22.5157 18.6917 22.7824 18.633C23.049 18.5797 23.2677 18.5023 23.4384 18.401C23.6144 18.305 23.7424 18.1877 23.8224 18.049C23.9024 17.9157 23.9424 17.769 23.9424 17.609ZM25.9104 9.31303V10.049C25.9104 10.2837 25.769 10.4277 25.4864 10.481L24.7504 10.617C24.8624 10.8997 24.9184 11.209 24.9184 11.545C24.9184 11.9504 24.8357 12.3184 24.6704 12.649C24.5104 12.9744 24.2864 13.2517 23.9984 13.481C23.7104 13.7104 23.369 13.889 22.9744 14.017C22.585 14.1397 22.1637 14.201 21.7104 14.201C21.5504 14.201 21.3957 14.193 21.2464 14.177C21.097 14.161 20.9504 14.1397 20.8064 14.113C20.5504 14.2677 20.4224 14.441 20.4224 14.633C20.4224 14.7984 20.497 14.921 20.6464 15.001C20.801 15.0757 21.0037 15.129 21.2544 15.161C21.505 15.193 21.7904 15.2143 22.1104 15.225C22.4304 15.2303 22.7584 15.2463 23.0944 15.273C23.4304 15.2997 23.7584 15.3477 24.0784 15.417C24.3984 15.481 24.6837 15.585 24.9344 15.729C25.185 15.873 25.385 16.0703 25.5344 16.321C25.689 16.5663 25.7664 16.8837 25.7664 17.273C25.7664 17.6357 25.6757 17.9877 25.4944 18.329C25.3184 18.6703 25.0597 18.9743 24.7184 19.241C24.3824 19.5077 23.9664 19.721 23.4704 19.881C22.9797 20.0463 22.4197 20.129 21.7904 20.129C21.1717 20.129 20.633 20.0677 20.1744 19.945C19.7157 19.8277 19.3344 19.6677 19.0304 19.465C18.7264 19.2677 18.4997 19.0383 18.3504 18.777C18.201 18.5157 18.1264 18.2437 18.1264 17.961C18.1264 17.577 18.241 17.257 18.4704 17.001C18.705 16.7397 19.025 16.5317 19.4304 16.377C19.2117 16.265 19.0384 16.1157 18.9104 15.929C18.7824 15.7423 18.7184 15.497 18.7184 15.193C18.7184 15.0703 18.7397 14.945 18.7824 14.817C18.8304 14.6837 18.897 14.553 18.9824 14.425C19.073 14.297 19.185 14.177 19.3184 14.065C19.4517 13.9477 19.609 13.8437 19.7904 13.753C19.3744 13.529 19.0464 13.2304 18.8064 12.857C18.5717 12.4837 18.4544 12.0464 18.4544 11.545C18.4544 11.1397 18.5344 10.7744 18.6944 10.449C18.8597 10.1184 19.0864 9.83836 19.3744 9.60903C19.6677 9.37436 20.0117 9.1957 20.4064 9.07303C20.8064 8.95036 21.241 8.88903 21.7104 8.88903C22.0624 8.88903 22.393 8.92636 22.7024 9.00103C23.0117 9.07036 23.2944 9.17436 23.5504 9.31303H25.9104ZM29.1635 5.35303V17.241H27.1875V5.35303H29.1635ZM33.1803 9.03303V17.241H31.1963V9.03303H33.1803ZM33.4523 6.64103C33.4523 6.81169 33.4176 6.97169 33.3483 7.12103C33.2789 7.27036 33.1856 7.40103 33.0683 7.51303C32.9563 7.62503 32.8229 7.7157 32.6683 7.78503C32.5136 7.84903 32.3483 7.88103 32.1723 7.88103C32.0016 7.88103 31.8389 7.84903 31.6843 7.78503C31.5349 7.7157 31.4043 7.62503 31.2923 7.51303C31.1803 7.40103 31.0896 7.27036 31.0203 7.12103C30.9563 6.97169 30.9243 6.81169 30.9243 6.64103C30.9243 6.46503 30.9563 6.2997 31.0203 6.14503C31.0896 5.99036 31.1803 5.85703 31.2923 5.74503C31.4043 5.63303 31.5349 5.54503 31.6843 5.48103C31.8389 5.41169 32.0016 5.37703 32.1723 5.37703C32.3483 5.37703 32.5136 5.41169 32.6683 5.48103C32.8229 5.54503 32.9563 5.63303 33.0683 5.74503C33.1856 5.85703 33.2789 5.99036 33.3483 6.14503C33.4176 6.2997 33.4523 6.46503 33.4523 6.64103ZM40.2028 10.633C40.1494 10.7184 40.0934 10.7797 40.0348 10.817C39.9761 10.849 39.9014 10.865 39.8108 10.865C39.7148 10.865 39.6108 10.8384 39.4988 10.785C39.3921 10.7317 39.2668 10.673 39.1228 10.609C38.9788 10.5397 38.8134 10.4784 38.6267 10.425C38.4454 10.3717 38.2294 10.345 37.9788 10.345C37.5894 10.345 37.2828 10.4277 37.0588 10.593C36.8401 10.7584 36.7308 10.9744 36.7308 11.241C36.7308 11.417 36.7868 11.5664 36.8988 11.689C37.0161 11.8064 37.1681 11.9104 37.3548 12.001C37.5468 12.0917 37.7628 12.1744 38.0028 12.249C38.2428 12.3184 38.4854 12.3957 38.7308 12.481C38.9814 12.5664 39.2268 12.665 39.4668 12.777C39.7068 12.8837 39.9201 13.0224 40.1068 13.193C40.2988 13.3584 40.4508 13.5584 40.5628 13.793C40.6801 14.0277 40.7388 14.3104 40.7388 14.641C40.7388 15.0357 40.6668 15.401 40.5228 15.737C40.3841 16.0677 40.1761 16.3557 39.8988 16.601C39.6214 16.841 39.2774 17.0303 38.8668 17.169C38.4614 17.3023 37.9921 17.369 37.4588 17.369C37.1761 17.369 36.8988 17.3423 36.6268 17.289C36.3601 17.241 36.1014 17.1717 35.8508 17.081C35.6054 16.9903 35.3761 16.8837 35.1628 16.761C34.9548 16.6383 34.7708 16.505 34.6108 16.361L35.0668 15.609C35.1254 15.5183 35.1948 15.449 35.2747 15.401C35.3547 15.353 35.4561 15.329 35.5788 15.329C35.7014 15.329 35.8161 15.3637 35.9228 15.433C36.0348 15.5023 36.1628 15.577 36.3068 15.657C36.4508 15.737 36.6188 15.8117 36.8108 15.881C37.0081 15.9503 37.2561 15.985 37.5548 15.985C37.7894 15.985 37.9894 15.9583 38.1548 15.905C38.3254 15.8463 38.4641 15.7717 38.5708 15.681C38.6828 15.5903 38.7627 15.4863 38.8108 15.369C38.8641 15.2463 38.8908 15.121 38.8908 14.993C38.8908 14.801 38.8321 14.6437 38.7148 14.521C38.6028 14.3984 38.4508 14.2917 38.2587 14.201C38.0721 14.1104 37.8561 14.0304 37.6108 13.961C37.3708 13.8864 37.1228 13.8064 36.8668 13.721C36.6161 13.6357 36.3681 13.537 36.1228 13.425C35.8828 13.3077 35.6668 13.161 35.4748 12.985C35.2881 12.809 35.1361 12.593 35.0188 12.337C34.9068 12.081 34.8508 11.7717 34.8508 11.409C34.8508 11.073 34.9174 10.753 35.0508 10.449C35.1841 10.145 35.3788 9.88103 35.6348 9.65703C35.8961 9.4277 36.2188 9.24636 36.6028 9.11303C36.9921 8.97436 37.4401 8.90503 37.9468 8.90503C38.5121 8.90503 39.0268 8.99836 39.4908 9.18503C39.9548 9.37169 40.3414 9.61703 40.6508 9.92103L40.2028 10.633ZM44.202 9.91303C44.522 9.61436 44.874 9.37169 45.258 9.18503C45.642 8.99836 46.0927 8.90503 46.61 8.90503C47.058 8.90503 47.4553 8.98236 47.802 9.13703C48.1487 9.28636 48.4367 9.4997 48.666 9.77703C48.9007 10.049 49.0767 10.377 49.194 10.761C49.3167 11.1397 49.378 11.5584 49.378 12.017V17.241H47.402V12.017C47.402 11.5157 47.2873 11.129 47.058 10.857C46.8287 10.5797 46.4793 10.441 46.01 10.441C45.6687 10.441 45.3487 10.5184 45.05 10.673C44.7513 10.8277 44.4687 11.0384 44.202 11.305V17.241H42.226V5.35303H44.202V9.91303Z" />
</svg>

</svg>
